<svg xmlns="http://www.w3.org/2000/svg" xmlns:xlink="http://www.w3.org/1999/xlink" version="1.1" width="100" height="100" viewBox="0 0 100 100" xml:space="preserve">
<desc>Created with Fabric.js 3.5.0</desc>
<defs>
</defs>
<rect x="0" y="0" width="100%" height="100%" fill="#ffffff"/>
<g transform="matrix(1 0 0 1.1056 435.7738 365.6817)" id="332765">
<g style="" vector-effect="non-scaling-stroke">
		<g transform="matrix(1 0 0 1 0 0)">
<path style="stroke: none; stroke-width: 1; stroke-dasharray: none; stroke-linecap: butt; stroke-dashoffset: 0; stroke-linejoin: miter; stroke-miterlimit: 4; is-custom-font: none; font-file-url: none; fill: rgb(0,0,0); fill-rule: nonzero; opacity: 1;" transform=" translate(-24, -24)" d="M 40 4 h -32 c -2.21 0 -3.98 1.79 -3.98 4 l -0.02 36 l 8 -8 h 28 c 2.21 0 4 -1.79 4 -4 v -24 c 0 -2.21 -1.79 -4 -4 -4 z m -4 24 h -24 v -4 h 24 v 4 z m 0 -6 h -24 v -4 h 24 v 4 z m 0 -6 h -24 v -4 h 24 v 4 z" stroke-linecap="round"/>
</g>
		<g transform="matrix(1 0 0 1 0 0)">
<path style="stroke: none; stroke-width: 1; stroke-dasharray: none; stroke-linecap: butt; stroke-dashoffset: 0; stroke-linejoin: miter; stroke-miterlimit: 4; is-custom-font: none; font-file-url: none; fill: none; fill-rule: nonzero; opacity: 1;" transform=" translate(-24, -24)" d="M 0 0 h 48 v 48 h -48 z" stroke-linecap="round"/>
</g>
</g>
</g>
<g transform="matrix(1 0 0 1 566.2673 393.2989)" style="" id="296941">
		
<path xml:space="preserve" font-family="Abel" font-size="56" font-style="normal" font-weight="normal" style="stroke: none; stroke-width: 0; stroke-dasharray: none; stroke-linecap: butt; stroke-dashoffset: 0; stroke-linejoin: miter; stroke-miterlimit: 4; is-custom-font: none; font-file-url: none; fill: rgb(0,74,173); fill-rule: nonzero; opacity: 1; white-space: pre;" d="M-47.78-18.26L-57.13-18.26L-57.13 17.59L-60.66 17.59L-60.66-18.26L-70.01-18.26L-70.01-21.62L-47.78-21.62L-47.78-18.26ZM-24.60 17.59L-27.96 17.59L-27.96-2.92Q-27.96-3.93-28.34-4.82Q-28.72-5.71-29.38-6.36Q-30.04-7.02-30.93-7.40Q-31.81-7.78-32.83-7.78L-32.83-7.78L-35.07-7.78Q-36.08-7.78-36.97-7.40Q-37.86-7.02-38.51-6.36Q-39.17-5.71-39.55-4.82Q-39.94-3.93-39.94-2.92L-39.94-2.92L-39.94 17.59L-43.30 17.59L-43.30-21.62L-39.94-21.62L-39.94-8.06Q-38.79-9.42-37.17-10.19Q-35.56-10.96-33.67-10.96L-33.67-10.96L-32.83-10.96Q-31.13-10.96-29.63-10.31Q-28.12-9.67-27.00-8.55Q-25.88-7.43-25.24-5.92Q-24.60-4.42-24.60-2.72L-24.60-2.72L-24.60 17.59ZM-6.28-7.21L-9.64-7.21Q-10.65-7.21-11.54-6.83Q-12.43-6.44-13.08-5.79Q-13.74-5.13-14.12-4.24Q-14.51-3.35-14.51-2.34L-14.51-2.34L-14.51 17.59L-17.87 17.59L-17.87-10.41L-16.75-10.41L-14.92-7.56Q-13.77-9.12-12.03-10.04Q-10.29-10.96-8.24-10.96L-8.24-10.96L-6.28-10.96L-6.28-7.21ZM16.91 9.91L16.91 9.91Q16.91 11.60 16.27 13.11Q15.63 14.61 14.51 15.73Q13.38 16.85 11.88 17.50Q10.38 18.14 8.68 18.14L8.68 18.14L6.44 18.14Q4.74 18.14 3.24 17.50Q1.74 16.85 0.62 15.73Q-0.51 14.61-1.15 13.11Q-1.79 11.60-1.79 9.91L-1.79 9.91L-1.79-2.72Q-1.79-4.42-1.15-5.92Q-0.51-7.43 0.62-8.55Q1.74-9.67 3.24-10.31Q4.74-10.96 6.44-10.96L6.44-10.96L8.68-10.96Q10.38-10.96 11.88-10.31Q13.38-9.67 14.51-8.55Q15.63-7.43 16.27-5.92Q16.91-4.42 16.91-2.72L16.91-2.72L16.91 3.87L1.57 3.87L1.57 10.10Q1.57 11.11 1.96 12.00Q2.34 12.89 2.99 13.54Q3.65 14.20 4.54 14.58Q5.43 14.97 6.44 14.97L6.44 14.97L8.68 14.97Q9.69 14.97 10.58 14.58Q11.47 14.20 12.13 13.54Q12.78 12.89 13.17 12.00Q13.55 11.11 13.55 10.10L13.55 10.10L13.55 8.24L16.91 8.79L16.91 9.91ZM13.55 1.24L13.55-2.92Q13.55-3.93 13.17-4.82Q12.78-5.71 12.13-6.36Q11.47-7.02 10.58-7.40Q9.69-7.78 8.68-7.78L8.68-7.78L6.44-7.78Q5.43-7.78 4.54-7.40Q3.65-7.02 2.99-6.36Q2.34-5.71 1.96-4.82Q1.57-3.93 1.57-2.92L1.57-2.92L1.57 1.24L13.55 1.24ZM42.34 17.59L41.22 17.59L39.36 14.80Q38.21 16.31 36.49 17.22Q34.77 18.14 32.72 18.14L32.72 18.14L31.87 18.14Q30.17 18.14 28.67 17.50Q27.17 16.85 26.04 15.73Q24.92 14.61 24.28 13.11Q23.64 11.60 23.64 9.91L23.64 9.91L23.64 9.63Q23.64 7.94 24.28 6.44Q24.92 4.93 26.04 3.81Q27.17 2.69 28.67 2.05Q30.17 1.40 31.87 1.40L31.87 1.40L38.98 1.40L38.98-2.92Q38.98-3.93 38.60-4.82Q38.21-5.71 37.56-6.36Q36.90-7.02 36.01-7.40Q35.12-7.78 34.11-7.78L34.11-7.78L32.14-7.78Q31.13-7.78 30.24-7.40Q29.35-7.02 28.70-6.36Q28.04-5.71 27.66-4.82Q27.28-3.93 27.28-2.92L27.28-2.92L27.28-1.90L23.91-2.45L23.91-2.72Q23.91-4.42 24.55-5.92Q25.20-7.43 26.32-8.55Q27.44-9.67 28.94-10.31Q30.45-10.96 32.14-10.96L32.14-10.96L34.11-10.96Q35.81-10.96 37.31-10.31Q38.81-9.67 39.94-8.55Q41.06-7.43 41.70-5.92Q42.34-4.42 42.34-2.72L42.34-2.72L42.34 17.59ZM38.98 10.10L38.98 4.03L31.87 4.03Q30.86 4.03 29.97 4.41Q29.08 4.79 28.42 5.46Q27.77 6.13 27.38 7.02Q27.00 7.91 27.00 8.92L27.00 8.92L27.00 10.10Q27.00 11.11 27.38 12.00Q27.77 12.89 28.42 13.54Q29.08 14.20 29.97 14.58Q30.86 14.97 31.87 14.97L31.87 14.97L34.11 14.97Q35.12 14.97 36.01 14.58Q36.90 14.20 37.56 13.54Q38.21 12.89 38.60 12.00Q38.98 11.11 38.98 10.10L38.98 10.10ZM67.77 17.59L66.65 17.59L64.79 14.75Q63.64 16.31 61.92 17.22Q60.20 18.14 58.15 18.14L58.15 18.14L57.30 18.14Q55.60 18.14 54.10 17.50Q52.60 16.85 51.47 15.73Q50.35 14.61 49.71 13.11Q49.07 11.60 49.07 9.91L49.07 9.91L49.07-2.72Q49.07-4.42 49.71-5.92Q50.35-7.43 51.47-8.55Q52.60-9.67 54.10-10.31Q55.60-10.96 57.30-10.96L57.30-10.96L58.15-10.96Q60.03-10.96 61.65-10.19Q63.26-9.42 64.41-8.06L64.41-8.06L64.41-21.62L67.77-21.62L67.77 17.59ZM64.41 10.10L64.41-2.92Q64.41-3.93 64.03-4.82Q63.64-5.71 62.99-6.36Q62.33-7.02 61.44-7.40Q60.55-7.78 59.54-7.78L59.54-7.78L57.30-7.78Q56.29-7.78 55.40-7.40Q54.51-7.02 53.85-6.36Q53.20-5.71 52.81-4.82Q52.43-3.93 52.43-2.92L52.43-2.92L52.43 10.10Q52.43 11.11 52.81 12.00Q53.20 12.89 53.85 13.54Q54.51 14.20 55.40 14.58Q56.29 14.97 57.30 14.97L57.30 14.97L59.54 14.97Q60.55 14.97 61.44 14.58Q62.33 14.20 62.99 13.54Q63.64 12.89 64.03 12.00Q64.41 11.11 64.41 10.10L64.41 10.10Z"/></g>
<g transform="matrix(1.3727 0 0 1.469 465.1153 396.9149)" id="501882">
<g style="" vector-effect="non-scaling-stroke">
		<g transform="matrix(1 0 0 1 0 0)">
<path style="stroke: none; stroke-width: 1; stroke-dasharray: none; stroke-linecap: butt; stroke-dashoffset: 0; stroke-linejoin: miter; stroke-miterlimit: 4; is-custom-font: none; font-file-url: none; fill: rgb(0,0,0); fill-rule: nonzero; opacity: 1;" transform=" translate(-24, -24)" d="M 40 4 h -32 c -2.21 0 -3.98 1.79 -3.98 4 l -0.02 36 l 8 -8 h 28 c 2.21 0 4 -1.79 4 -4 v -24 c 0 -2.21 -1.79 -4 -4 -4 z m -4 24 h -24 v -4 h 24 v 4 z m 0 -6 h -24 v -4 h 24 v 4 z m 0 -6 h -24 v -4 h 24 v 4 z" stroke-linecap="round"/>
</g>
		<g transform="matrix(1 0 0 1 0 0)">
<path style="stroke: none; stroke-width: 1; stroke-dasharray: none; stroke-linecap: butt; stroke-dashoffset: 0; stroke-linejoin: miter; stroke-miterlimit: 4; is-custom-font: none; font-file-url: none; fill: none; fill-rule: nonzero; opacity: 1;" transform=" translate(-24, -24)" d="M 0 0 h 48 v 48 h -48 z" stroke-linecap="round"/>
</g>
</g>
</g>
</svg>